# xmcd CD database file
#
# Track frame offsets:
#	150
#	10615
#	25121
#	33411
#	47243
#	56938
#	73323
#	85077
#	96584
#	111711
#	121616
#	130252
#	141175
#	151151
#	163028
#	171842
#
# Disc length: 2501 seconds
#
# Revision: 2
# Processed by: cddbd v1.4PL0 Copyright (c) Steve Scherf et al.
# Submitted via: Feurio! 1.66 - http://www.feurio.com
#
DISCID=de09c310
DTITLE=Various Artist - 16 Musikalische Schmankerln aus dem Ausseerland Folge 2
DYEAR=1900
DGENRE=
TTITLE0=D' Ausseer Bradlmusi - Bradl-Polka
TTITLE1=Altausseer Schütztenmusi - Stoasteirischer
TTITLE2=Grimming Quintett - Grimming Polka
TTITLE3=D' Ausseer Bradlmusi - Seewies'n-Walzer
TTITLE4=Ausseer Saitenmusi - Ausseer Almgjodlert
TTITLE5=Ausseer Viergesang - Da kloane Hahn
TTITLE6=Ausseer Stubenmusi - Reithanger Polka
TTITLE7=D' Ausseer Bradlmusi - Wonn die Sunn aufgeht
TTITLE8=Ausseer Viergesang - Ausseer Ländler
TTITLE9=Altausseer Schützenmusi - Halterbuam Marsch
TTITLE10=Pucher Trio - Hoch vom Dachstein
TTITLE11=Altausseer Schützenmusi - Über'n See
TTITLE12=D' Ausseer Bradlmusi - Roittner-Schottisch
TTITLE13=D' Ausseer Bradlmusi and Grundlseer Dreigesang - Da Hocker Sepperl
TTITLE14=Altausseer Seitelpfeifer - Ausseer Schützentänze
TTITLE15=Altausseer Schützenmusi - Altausseer Fischerlied
EXTD=
EXTT0=
EXTT1=
EXTT2=
EXTT3=
EXTT4=
EXTT5=
EXTT6=
EXTT7=
EXTT8=
EXTT9=
EXTT10=
EXTT11=
EXTT12=
EXTT13=
EXTT14=
EXTT15=
PLAYORDER=
